# xmcd
#
# Track frame offsets: 
#        150
#        18462
#        40812
#        61108
#        78601
#        93889
#        118099
#        142265
#        161561
#        180496
#
# Disc length: 2702 seconds
#
# Revision: 0
# Processed by: cddbd v1.5.2PL0 Copyright (c) Steve Scherf et al.
# Submitted via: ExactAudioCopy v1.0b1
#
DISCID=7f0a8c0a
DTITLE=Hoedown - Black and White (Black) [FLAC]
DYEAR=2010
DGENRE=Pop-Folk
TTITLE0=Ophelin
TTITLE1=Crazy Mama
TTITLE2=9 to 5
TTITLE3=Sea Cruise
TTITLE4=Black and White
TTITLE5=Tears My Stillhouse Down
TTITLE6=All the Time In the World
TTITLE7=Rad Gumbo
TTITLE8=Hound Dog
TTITLE9=I Shall Be Released
EXTD=
EXTT0=
EXTT1=
EXTT2=
EXTT3=
EXTT4=
EXTT5=
EXTT6=
EXTT7=
EXTT8=
EXTT9=
PLAYORDER=
